<svg width="48px" height="102px" viewBox="0 0 48 102" version="1.1" xmlns="http://www.w3.org/2000/svg" xmlns:xlink="http://www.w3.org/1999/xlink"><g id="All" stroke="none" stroke-width="1" fill="none" fill-rule="evenodd"><g id="01a-Order-Placing-(new-selector---long-description)" transform="translate(-497.000000, -98.000000)" fill-rule="nonzero"><g id="Group-67" transform="translate(-48.000000, 47.000000)"><g id="Group-59" transform="translate(124.000000, 34.000000)"><g id="MovingCart_export" transform="translate(421.000000, 17.000000)"><g id="MovingCart"> <path d="M46.6736564,70.6308256 L46.5295772,70.7348828 C46.5825636,70.7076406 46.6311371,70.67256 46.6736564,70.6308256 Z" id="Shape" fill="#959494"></path> <path d="M46.3214628,70.798918 C46.4725555,70.5338643 46.5447608,70.2311547 46.5295772,69.9264384 L46.5295772,69.9264361 C46.514199,69.3406885 46.3664267,68.7660223 46.0973388,68.2455121 L46.0973389,68.2455123 C46.0331059,68.1132044 45.9609351,67.9849003 45.8812201,67.8613011 L45.5370309,68.4216091 L45.6170749,68.5656883 C45.765659,68.8475626 45.8477978,69.1596902 45.8572069,69.47819 C45.8572069,69.8944188 45.6731057,70.1345508 45.4089605,70.1345508 C45.2788466,70.1285463 45.1534617,70.0839649 45.0487625,70.0064804 C44.9167451,69.9136038 44.8005301,69.8000918 44.7045733,69.6702957 C44.5344895,69.4473876 44.4069562,69.1950337 44.3283666,68.9258865 C44.277963,68.7596863 44.2510213,68.5872596 44.2483226,68.4136049 C44.2483226,68.0534069 44.3843974,67.8292837 44.5845074,67.7652485 L44.3443754,67.0528569 L44.176283,66.9407953 L44.0242002,66.8447441 C43.6862737,67.1094768 43.5104082,67.5309477 43.559945,67.9573557 L43.5599449,67.9573502 C43.5943131,69.1137939 44.1395627,70.1955005 45.0487553,70.9109738 C45.2429485,71.0512646 45.4738138,71.1319282 45.7131206,71.1431015 C45.8468093,71.14352 45.977658,71.1045437 46.0893274,71.0310399 L46.1293494,71.0310399 C46.2093791,70.9684275 46.274915,70.8892412 46.321459,70.7989163 L46.3214628,70.798918 Z" id="Shape" fill="#282F39"></path> <path d="M44.9286972,68.83784 C44.9520559,68.8299111 44.9773781,68.8299111 45.0007368,68.83784 C45.0373284,68.8271675 45.0762068,68.8271675 45.1127984,68.83784 L45.1928424,68.9098796 L45.5130184,68.397598 L45.8572076,67.83729 L45.9132384,67.7412372 L45.7611548,67.7412372 L45.7611546,67.7412371 C45.2812516,67.6180254 44.8244397,67.4180011 44.408411,67.1489115 L44.328367,67.1008851 L44.568499,67.8132767 L44.9286972,68.83784 Z" id="Shape" fill="#413833"></path> <path d="M46.1293572,71.0070324 L46.5295772,70.7348828 C46.4645559,70.7684098 46.3940852,70.7900931 46.3214628,70.798918 C46.2721786,70.8805805 46.2068222,70.9513834 46.1293572,71.0070324 Z" id="Shape" fill="#959494"></path> <polygon id="Shape" fill="#E1E7E5" points="45.5130184 68.3895936 45.1928424 68.9018752 45.1928424 68.9018752 45.505014 68.3895936 45.8492032 67.8292856 45.9212428 67.7092196 45.9212428 67.7092196 45.865212 67.8052724"></polygon> <path d="M45.8812208,67.8693076 C45.9609355,67.9929068 46.0331067,68.1212109 46.0973396,68.2535188 L46.0973397,68.253519 C46.3664276,68.7740267 46.5141992,69.348697 46.5295773,69.934443 L46.5295773,69.9344435 C46.5447612,70.2391598 46.472555,70.5418694 46.3214629,70.8069231 C46.394085,70.7980983 46.464556,70.7764149 46.5295774,70.7428879 L46.6736566,70.6388307 C46.9270383,70.357512 47.0517597,69.9833472 47.0178458,69.6062631 L47.0178459,69.6062652 C47.0033023,69.0204008 46.8554838,68.4455472 46.5856091,67.9253412 L46.5856091,67.861306 L46.5856086,67.8613059 C46.3811682,67.8371579 46.1781174,67.8024256 45.9772742,67.7572487 L45.8812208,67.8693076 Z" id="Shape" fill="#15191F"></path> <path d="M45.3609348,69.318104 C45.3609348,69.4461744 45.304904,69.518214 45.22486,69.518214 C45.1883363,69.529351 45.1493222,69.529351 45.1127984,69.518214 C44.9623781,69.40333 44.8713296,69.2271059 44.8646619,69.03795 C44.8594404,68.9751116 44.8829898,68.9132942 44.9286972,68.8698575 L44.5765036,67.8132767 C44.3763936,67.8693075 44.2403188,68.1014351 44.2403188,68.4616331 L44.2403188,68.4616284 C44.2430171,68.6352831 44.2699582,68.807709 44.3203613,68.97391 L44.3203613,68.9739098 C44.3989506,69.243057 44.5264842,69.4954109 44.6965681,69.718319 C44.7925248,69.8481152 44.9087399,69.9616272 45.0407573,70.0545038 C45.1454564,70.1319883 45.2708413,70.1765693 45.4009553,70.1825742 C45.6651005,70.1825742 45.8492017,69.9424422 45.8492017,69.5262134 L45.8492018,69.5262168 C45.8397934,69.207717 45.7576555,68.8955902 45.6090714,68.6137152 L45.5290274,68.469636 L45.2168558,68.9819176 C45.290185,69.0813579 45.3394984,69.1964244 45.360935,69.3181041 L45.3609348,69.318104 Z" id="Shape" fill="#F8A01D"></path> <path d="M44.8726664,68.997928 L44.8726664,68.9979275 C44.8793339,69.1870835 44.9703825,69.3633076 45.1208028,69.4781915 C45.1573265,69.4893285 45.1963406,69.4893285 45.2328644,69.4781915 C45.3129084,69.4781915 45.3689392,69.4061519 45.3689392,69.2780815 L45.3689392,69.2780819 C45.3574949,69.140415 45.3106169,69.0080535 45.2328644,68.8938707 L45.1528204,68.8218311 C45.1162289,68.8111586 45.0773504,68.8111586 45.0407588,68.8218311 C45.0174001,68.8139022 44.9920779,68.8139022 44.9687192,68.8218311 C44.9086595,68.8602093 44.8724175,68.9266535 44.8726664,68.9979279 Z" id="Shape" fill="#464D5A"></path> <path d="M16.1768924,46.8497532 L16.1768924,48.7548004 L15.9447648,48.8908752 L10.3416848,52.0926352 L10.3416848,54.3418716 L8.80484,55.390448 L7.6922284,54.670052 L7.40407,54.7420916 L8.5967256,47.0418588 L18.2740452,40.6383388 L18.2740452,45.62508 L16.1768924,46.8497532 Z M23.4849096,59.8809164 L26.6866696,63.6910108 L15.1603336,65.0117368 L9.2931084,59.8809164 L9.5572536,59.7448416 L9.9494692,58.4801464 L11.7824768,58.272032 L13.2312732,59.992978 L19.570758,58.8963752 L19.8349032,58.8483488 L21.0595764,60.3051496 L23.4849096,59.8809164 Z M18.2980584,36.4920596 L18.2980584,39.6938196 L8.80484,45.9932824 L9.3331304,42.42332 L18.2980584,36.4920596 Z M18.6742652,68.0854264 L15.9527692,65.6841064 L27.2869996,64.3793892 L29.3521348,66.83674 L18.6742652,68.0854264 Z M17.5056228,27.6632064 C18.0018956,27.6632064 18.3060628,28.1274616 18.3060628,28.9038884 L18.3060628,35.5635492 L9.3731524,41.4547876 L9.3011128,32.8660664 L15.7046328,28.6397432 L16.3770024,28.1995012 L16.4330332,28.1995012 L16.7932312,27.9593692 C16.9954103,27.7910919 17.2437332,27.6878568 17.5056228,27.6632064 Z M33.7225372,74.44092 L33.2902996,74.4889464 L33.2102556,74.4889464 L32.4098156,74.5849992 L24.81364,75.4254612 L19.330626,68.83784 L29.9604692,67.6131668 L34.2428232,72.7119696 C34.739096,73.3042952 34.8111356,73.8565988 34.4349288,74.1687704 C34.2298681,74.3284101 33.9818054,74.423175 33.7225372,74.44092 Z M14.3598936,28.255532 L14.1517792,28.7197872 L10.645852,31.0330588 L9.3011128,31.4652964 L9.3011128,26.7667136 L9.9574736,19.2745952 L14.3598936,28.255532 Z M34.0026912,85.4629788 L28.6877696,80.1400528 L25.694124,76.522064 L26.9988412,75.9937736 L31.177138,75.5135096 L31.6333888,75.7376328 L34.0026912,85.4629788 Z M6.8277532,55.390448 L8.0604308,55.9027296 L6.683674,56.83124 L6.683674,55.470492 L6.8277532,55.390448 Z M8.2605408,59.8168812 L7.3880612,58.7763092 L9.0369676,58.592208 L8.4206288,59.7768592 L8.2605408,59.8168812 Z M36.2759408,47.1379116 L36.2759408,44.9527104 L32.8420532,42.9756236 L31.057072,41.9110384 L27.855312,40.062022 L22.892584,42.943606 L21.7479548,43.6079712 L19.01045,45.2088512 L19.01045,28.7197872 C19.01045,27.5271316 18.4741552,26.7587092 17.6336932,26.7587092 C17.3067671,26.7716291 16.9891237,26.8710654 16.7131872,27.0468676 L16.649152,27.0868896 L16.5931212,27.0868896 L16.248932,27.3110128 L15.0322632,27.7432504 L12.3828068,19.930956 L11.3342304,10.0215088 L10.7339004,9.7973856 L8.64475197,8.9969456 L8.64475197,8.80484 L9.99749557,9.1570336 L11.20616,7.444092 L11.9185516,7.20396 L11.6944284,6.3154716 L12.0786396,4.2343276 L12.7990356,4.3303804 L14.768118,3.3538436 L12.4548464,2.2332276 L11.0700852,0.240132001 L9.18905117,1.42546952e-09 L6.61963877,0.952523601 L5.81919877,3.6500064 L6.22742317,6.0513264 L6.94781917,8.3165716 L7.13192037,8.364598 L7.04387197,8.7328004 L4.52248597,9.2290732 L1.80899437,9.7573636 L0.208114371,25.934256 L2.02511317,42.2712364 L0.0800439711,60.2811364 L-2.88564109e-08,60.2811364 L0.0640351711,60.3211584 L0.0640351711,60.393198 L0.128070371,60.3451716 L13.1752424,72.9040752 L22.3002584,86.5115552 L33.9146428,97.8858076 L36.3159628,96.5490728 L38.5651992,95.3083908 L38.861362,95.532514 L38.7493004,95.6845976 L39.6537976,97.8858076 L40.9104884,100.055 L43.2477732,101.65588 L45.82519,100.735374 L47.1219028,99.25456 L46.8737664,96.85324 L47.9303472,94.5079508 L45.7931724,95.0282368 L45.2968996,95.5645316 L43.6960196,94.211788 L43.2877952,93.411348 L42.583408,93.7395284 L40.6063212,93.1952292 L39.8058812,94.331854 L39.6698064,94.1797704 L40.7504004,92.2186924 L41.062572,91.6583844 L35.5075184,83.3978436 L32.4818552,75.6896064 L33.658502,75.24136 L34.0667264,75.1933336 L34.2108056,75.1933336 C34.5378454,75.1501471 34.8473771,75.0202545 35.1072984,74.8171268 C35.7476504,74.280832 35.6676064,73.3443172 34.899184,72.4158068 L24.293354,59.7368372 L27.41507,59.192538 L28.7197872,58.9604104 L34.3708936,57.9838736 L35.6355888,54.509964 L36.3559848,52.5248728 L37.7247372,48.82684 L36.2759408,47.1379116 Z M1.480814,59.8088768 L5.2668952,44.5284772 L5.60308,39.6778108 L5.9472692,41.5348316 L5.9472692,54.5739992 L5.9072472,55.7746592 L5.9472692,55.7746592 L5.9472692,57.3034996 L5.9072472,57.3034996 L5.843212,57.351526 L5.84321172,57.3515262 C5.43431415,57.6442935 5.12437658,58.0547512 4.95472332,58.528173 C5.39083185,58.7890084 5.89669712,58.9091864 6.40351972,58.8723622 L6.53959452,58.8723622 L6.88378372,59.2325602 L7.52413572,60.0330002 L7.47610932,60.0330002 L8.27654932,60.9214886 L14.6800693,68.533673 L15.2803993,69.2460646 L16.6731649,70.9029754 L17.6096797,72.575895 L14.2158141,69.0859766 L1.480814,59.8088768 Z" id="Shape" fill="#000000" opacity="0.1"></path> <polygon id="Shape" fill="#5F3A16" points="6.2354276 6.0753396 5.8272032 3.6500064 9.2931084 1.5928756 12.3507892 2.7855312 10.0775396 8.2765496"></polygon> <polygon id="Shape" fill="#1D242B" points="2.8175488 24.6855696 6.363498 43.6319844 5.9312604 55.7746592 7.364048 55.1583204 9.3811568 42.1271572 9.2530864 26.7507048 2.8175488 24.6855696"></polygon> <polygon id="Shape" fill="#343C4A" points="1.5688624 25.5500448 0.2481364 25.9502648 2.0251132 42.2712364 0.0640352 60.43322 1.3287304 60.43322 5.2668952 44.5284772 6.683674 25.1098028"></polygon> <polygon id="Shape" fill="#B54D1A" points="15.1443248 28.135466 12.3828068 19.930956 11.3342304 10.0295132 8.9409148 9.1330204 9.8934384 19.2345732 14.447942 28.4476376"></polygon> <polygon id="Shape" fill="#F16622" points="1.8330076 9.7733724 7.0598808 8.7568136 8.644752 8.9809368 10.7339004 9.7893812 9.2530864 26.7507048 0.2481364 25.9502648"></polygon> <path d="M7.40407,7.3000128 L6.963828,9.165038 L6.96382796,9.16503817 C6.85787052,9.61695699 7.13832788,10.0692072 7.5902475,10.1751614 C7.61599525,10.1811983 7.64201356,10.1860164 7.66821556,10.1895999 C8.12758242,10.256233 8.55399041,9.93785914 8.62061904,9.47849223 C8.62491434,9.44888051 8.62762524,9.4190606 8.62874014,9.38915992 L8.70077974,7.66821392 L7.40407,7.3000128 Z" id="Shape" fill="#FBD2B7"></path> <polygon id="Shape" fill="#1D242B" points="10.3016628 56.8232356 6.0513264 55.0622676 7.7162416 54.670052 10.4297332 56.43102 10.3016628 56.8232356"></polygon> <polygon id="Shape" fill="#343C4A" points="4.0102044 62.7304828 0 60.2891408 1.720946 60.1450616 4.1943056 62.354276"></polygon> <path d="M47.7302372,67.116894 L47.7302373,67.1168938 C47.5817965,67.7905088 47.1579427,68.3711272 46.5615949,68.7177738 L35.0352589,76.3299582 L35.035259,76.3299581 C33.8627745,77.0335152 32.4734908,77.2840425 31.1291118,77.0343453 L31.033059,77.0343453 L31.0330585,77.0343452 C30.4335354,76.9247049 29.8603579,76.7019537 29.3441301,76.3779844 L29.3041081,76.3779844 L28.9759277,76.1618656 L10.8459617,64.1712744 L10.4057197,63.883116 L8.88488372,62.882566 L8.35659332,62.5303724 L6.07533932,61.0175408 L6.07533901,61.0175406 C5.47831643,60.6716465 5.05421771,60.0906871 4.90669661,59.4166606 L4.90669655,59.4166597 C4.90107948,59.3393861 4.9010795,59.2618065 4.90669659,59.1845337 L4.90669659,59.6407845 C4.90669659,59.6808065 4.90669659,59.7288329 4.90669659,59.7688549 L4.90669654,59.7688542 C4.96362063,60.5456124 5.40116995,61.2438891 6.07533894,61.6338794 L8.47665894,63.2347594 L8.55670294,63.2907902 L8.62073814,63.3308122 L10.1575829,64.347371 L10.2776489,64.427415 L11.1821461,65.027745 L28.8718701,76.714169 L29.0159493,76.8102218 L29.1840417,76.9222834 L29.2640857,76.9703098 C29.6801127,77.2393993 30.1369255,77.4394237 30.6168293,77.5626354 L30.7689129,77.5626354 L30.7689123,77.5626353 C30.9697555,77.6078121 31.1728063,77.6425446 31.3772467,77.6666925 L31.3772465,77.6666924 C32.6328967,77.839826 33.9099347,77.577072 34.9952353,76.9222832 L46.5215713,69.3100988 C47.2183928,68.920451 47.6681296,68.2020817 47.714227,67.4050516 L47.714227,66.8207304 L47.7142269,66.8207302 C47.7278075,66.9188322 47.7331629,67.0178986 47.7302372,67.116893 L47.7302372,67.116894 Z" id="Shape" fill="#959494"></path> <path d="M10.40572,64.6275256 C10.6742893,65.1482311 10.8220297,65.7227757 10.8379576,66.3084496 L10.8379576,66.3084494 C10.850717,66.6139469 10.775721,66.9167094 10.6218388,67.180929 C10.694054,67.1702517 10.7642267,67.1486601 10.8299532,67.1168938 L10.9740324,67.0128366 C11.2307239,66.7298699 11.3582916,66.3529643 11.326226,65.9722646 L11.326226,65.9722688 C11.3216169,65.635378 11.267682,65.3009798 11.1661396,64.9797232 L10.2616424,64.3793932 C10.3256763,64.4594338 10.40572,64.5474824 10.40572,64.6275264 L10.40572,64.6275256 Z" id="Shape" fill="#15191F"></path> <path d="M16.80924,27.9113428 C17.0148425,27.7617639 17.2596691,27.675518 17.5136271,27.6632065 C18.0098999,27.6632065 18.3140671,28.1274617 18.3140671,28.9038885 L18.3140671,35.5635493 L8.00439989,42.3352717 L6.81974869,43.1357117 L6.68367389,43.2237601 L6.68367389,36.8202401 L6.68367383,36.8202497 C6.68521184,36.6026309 6.70664557,36.3856084 6.74770726,36.1718933 L6.74770732,36.171893 C6.89404616,35.4095068 7.22064329,34.6931922 7.70023092,34.0827446 L7.74825732,34.0187094 C7.88304176,33.8553461 8.03314027,33.7052476 8.19650367,33.5704631 L8.19650371,33.570462 C8.20599484,33.3064169 8.13930683,33.0452173 8.00439891,32.8180396 C7.93414867,32.8668111 7.86729151,32.9202966 7.80428888,32.9781276 L7.63619648,33.1382156 L7.63619583,33.1382163 C7.25637024,33.5169421 6.93289403,33.9482455 6.67566783,34.4189203 L6.6756677,34.4189205 C6.23856583,35.2182039 5.99716993,36.1097219 5.9712805,37.0203505 L5.9712805,57.2874913 L6.0753377,57.2154517 L6.3554917,57.0313505 L6.6756677,56.8152317 L6.6756677,48.3145589 L8.0043981,47.4500837 L18.3140653,40.6463437 L18.3140653,49.2270605 L18.3140656,49.2270604 C18.5450382,49.128916 18.7832003,49.0486367 19.0264556,48.9869292 L19.0264556,28.7197884 C19.0264556,27.5271328 18.4821564,26.7587104 17.6496988,26.7587104 C17.272457,26.7735815 16.9078702,26.898821 16.6011224,27.1189084 L16.2169112,27.3750492 C16.294146,27.6374447 16.3529876,27.9049069 16.393008,28.1754893 L16.80924,27.9113428 Z M18.2980584,39.701824 L8.0044,46.4975596 L6.723696,47.346026 L6.6756696,47.346026 L6.6756696,44.144266 L6.8357576,44.0322044 L8.0364176,43.2317644 L18.290054,36.460042 L18.2980584,39.701824 Z" id="Shape" fill="#F8A01D"></path> <polygon id="Shape" fill="#E1E7E5" points="9.5172316 65.2838864 9.5172316 65.2838864 9.8294032 64.7716048 10.1335704 64.275332 10.1335704 64.275332 9.8374076 64.7636004"></polygon> <path d="M9.245082,65.2038424 C9.27085354,65.1939884 9.29935448,65.1939884 9.32512601,65.2038424 C9.36164977,65.1927054 9.40066385,65.1927054 9.43718761,65.2038424 L9.51723161,65.275882 L9.83740761,64.7636004 L10.1335704,64.275332 L8.58872121,63.23476 L8.88488401,64.115244 L9.245082,65.2038424 Z" id="Shape" fill="#413833"></path> <path d="M6.0753396,61.0175412 L8.3405848,62.514364 L8.8688752,62.8665576 L10.40572,63.8671076 L10.8299532,64.155266 L28.9439104,76.121844 L29.2720908,76.3379628 L29.3121128,76.3379628 L29.3121123,76.3379625 C29.8283417,76.6619318 30.4015192,76.884683 31.0010407,76.9943233 L31.0970935,76.9943233 L31.0970932,76.9943232 C32.4414722,77.2440197 33.8307559,76.9934931 35.0032404,76.2899368 L46.5295764,68.6777524 L46.5295766,68.6777523 C47.1259244,68.3311089 47.5497774,67.7504906 47.698219,67.0768723 L47.698219,67.0768725 C47.7060199,66.9809782 47.7060199,66.8846084 47.698219,66.7887141 L47.6982191,66.7887153 C47.6506515,65.9921519 47.2013228,65.2744349 46.5055635,64.8836681 L23.3648431,49.6272817 L23.3648433,49.6272818 C22.0522177,48.84459 20.479121,48.625219 19.0024453,49.0189474 C18.7591907,49.0806553 18.5210286,49.1609343 18.2900553,49.2590786 C18.0527319,49.3612684 17.8250315,49.4844946 17.6096788,49.6272819 L8.61273316,55.5345291 L6.68367276,56.8312419 L6.36349676,57.0473607 L6.08334276,57.2314619 L5.97928556,57.3035015 L5.93926356,57.3035015 L5.87522836,57.3515279 C5.31188589,57.734973 4.95276128,58.3531425 4.89869156,59.0324519 L4.89869156,59.1605223 L4.89869149,59.1605232 C4.89307443,59.2377967 4.89307444,59.3153763 4.89869153,59.3926492 C5.04188464,60.0770094 5.46982068,60.6679662 6.07533833,61.0175424 L6.0753396,61.0175412 Z" id="Shape" fill="#D6DCDA"></path> <path d="M10.445742,67.3810392 L10.845962,67.1088896 C10.7802357,67.1406559 10.7100625,67.1622475 10.6378476,67.1729248 C10.5885634,67.2545873 10.523207,67.3253902 10.445742,67.3810392 Z" id="Shape" fill="#959494"></path> <path d="M9.6773196,65.6921108 C9.6773196,65.8201812 9.6212888,65.8922208 9.5412448,65.8922208 C9.50079184,65.890071 9.46184571,65.8761617 9.4291832,65.8521988 C9.27786077,65.7380728 9.18657378,65.5613877 9.18104675,65.3719348 C9.17484127,65.310471 9.19523502,65.2492896 9.23707762,65.2038423 L8.88488402,64.1552659 C8.68477402,64.2112967 8.54869922,64.4434243 8.54869922,64.7956179 L8.54869918,64.7956132 C8.55007389,64.9693783 8.57704444,65.1419924 8.62874182,65.3078948 C8.708673,65.580503 8.83899336,65.8357144 9.01295299,66.0603083 C9.10697031,66.1845054 9.22050552,66.2926337 9.34913783,66.3804844 C9.453837,66.4579688 9.57922192,66.5025499 9.70933584,66.5085548 C9.97348104,66.5085548 10.1575822,66.2684228 10.1575822,65.852194 L10.1575823,65.8521964 C10.1488955,65.5371216 10.0695683,65.2280189 9.92545631,64.9476992 L9.84541231,64.80362 L9.53324071,65.3159016 C9.61255485,65.4269706 9.66215235,65.5564746 9.67731989,65.69211 L9.6773196,65.6921108 Z" id="Shape" fill="#F8A01D"></path> <path d="M10.6378476,67.1809292 C10.7917298,66.9167096 10.8667254,66.6139471 10.8539664,66.3084496 L10.8539666,66.3084568 C10.8380399,65.7227861 10.6903006,65.148235 10.4217322,64.6275328 C10.3817102,64.5474888 10.3336838,64.4594404 10.2856574,64.3793964 L10.1655914,64.2993524 L9.86142419,64.7956252 L9.94146819,64.9397044 L9.94146826,64.9397046 C10.0855811,65.2200243 10.1649087,65.529127 10.1735959,65.8442018 C10.1735959,66.2604306 9.99749906,66.5005626 9.72534946,66.5005626 C9.59523553,66.4945581 9.46985061,66.4499766 9.36515145,66.3724922 C9.23651918,66.2846415 9.12298397,66.1765133 9.02896669,66.0523162 C8.85500714,65.8277224 8.72468671,65.5725109 8.64475557,65.2999027 L8.64475549,65.2999024 C8.59305763,65.134 8.56608673,64.961386 8.56471157,64.7876208 C8.56471157,64.4354272 8.70078637,64.2032996 8.90089637,64.1472688 L8.58872157,63.2347592 L8.52468637,63.2347592 L8.44464237,63.1787284 C8.09244877,63.3067988 7.86832557,63.7150232 7.86832557,64.3473708 L7.86832541,64.3473654 C7.90269366,65.5038091 8.44794322,66.5855157 9.3571358,67.300989 C9.55154424,67.4408675 9.78228308,67.521487 10.021501,67.5331166 C10.1579095,67.5351271 10.2917727,67.4960838 10.4057122,67.421055 L10.4457342,67.421055 C10.5266747,67.3561382 10.5922747,67.2741414 10.6378446,67.1809262 L10.6378476,67.1809292 Z" id="Shape" fill="#282F39"></path> <path d="M10.40572,32.1136528 L13.7355504,29.9124428 L14.2958584,29.536236 L14.2958584,29.496214 L14.2958584,28.9038884 C14.2199484,28.84914 14.1363227,28.8059786 14.047722,28.775818 L12.5989256,29.7283416 L10.1495792,31.3292216 L10.1495794,31.3292219 C10.2610822,31.5814342 10.3468958,31.844237 10.4057194,32.1136507 L10.40572,32.1136528 Z" id="Shape" fill="#F8A01D"></path> <path d="M31.537336,80.4522244 L31.3932568,80.5562816 C31.4462432,80.5290394 31.4948167,80.4939588 31.537336,80.4522244 Z" id="Shape" fill="#959494"></path> <path d="M31.21716,80.6203168 C31.3682527,80.3552631 31.440458,80.0525535 31.4252744,79.7478372 L31.4252744,79.7478349 C31.4098962,79.1620873 31.2621239,78.5874211 30.993036,78.0669109 L30.9930361,78.0669111 C30.9288031,77.9346032 30.8566323,77.8062991 30.7769173,77.6826999 L30.4327281,78.2430079 L30.5127721,78.3870871 C30.6613562,78.6689614 30.743495,78.981089 30.7529041,79.2995888 C30.7529041,79.7158176 30.5688029,79.9559496 30.3046577,79.9559496 C30.1745438,79.9499451 30.0491589,79.9053637 29.9444597,79.8278792 C29.8124423,79.7350026 29.6962273,79.6214906 29.6002705,79.4916945 C29.4301867,79.2687864 29.3026534,79.0164325 29.2240638,78.7472853 C29.1736602,78.5810851 29.1467185,78.4086584 29.1440198,78.2350037 C29.1440198,77.8748057 29.2800946,77.6506825 29.4802046,77.5866473 L29.2400726,76.8742557 L29.0719802,76.7621941 L28.927901,76.6661413 C28.5899745,76.930874 28.414109,77.3523449 28.4636458,77.7787529 L28.4636457,77.7787474 C28.4980139,78.9351911 29.0432635,80.0168977 29.9524561,80.732371 C30.1466493,80.8726618 30.3775146,80.9533254 30.6168214,80.9644987 C30.75051,80.9649172 30.8813588,80.9259409 30.9930282,80.8524371 L31.0330502,80.8524371 C31.110181,80.7889898 31.1729375,80.7098659 31.2171562,80.6203143 L31.21716,80.6203168 Z" id="Shape" fill="#282F39"></path> <path d="M29.7923768,78.64323 C29.8157355,78.6353011 29.8410577,78.6353011 29.8644164,78.64323 C29.901008,78.6325575 29.9398864,78.6325575 29.976478,78.64323 L30.056522,78.7152696 L30.376698,78.202988 L30.7208872,77.64268 L30.776918,77.5466272 L30.6248344,77.5466272 L30.6248342,77.5466271 C30.1449312,77.4234154 29.6881193,77.2233911 29.2720906,76.9543015 L29.1920466,76.9062751 L29.4321786,77.6186667 L29.7923768,78.64323 Z" id="Shape" fill="#413833"></path> <path d="M30.9930368,80.84444 L31.3932568,80.5722904 C31.3282355,80.6058174 31.2577648,80.6275007 31.1851424,80.6363256 C31.1358582,80.7179881 31.0705018,80.788791 30.9930368,80.84444 Z" id="Shape" fill="#959494"></path> <polygon id="Shape" fill="#E1E7E5" points="30.376698 78.2109924 30.056522 78.723274 30.056522 78.723274 30.3686936 78.2109924 30.7128828 77.6506844 30.7849224 77.5306184 30.7849224 77.5306184 30.7288916 77.6266712"></polygon> <path d="M30.736896,77.6907064 C30.8166107,77.8143056 30.8887819,77.9426097 30.9530148,78.0749176 L30.9530149,78.0749178 C31.2221028,78.5954255 31.3698744,79.1700958 31.3852525,79.7558418 L31.3852525,79.7558423 C31.4004364,80.0605586 31.3282302,80.3632682 31.1771381,80.6283219 C31.2497602,80.6194971 31.3202312,80.5978137 31.3852526,80.5642867 L31.5293318,80.4602295 C31.7827135,80.1789108 31.9074349,79.804746 31.873521,79.4276619 L31.8735211,79.427664 C31.8589775,78.8417996 31.711159,78.266946 31.4412843,77.74674 L31.4412843,77.6827048 L31.4412838,77.6827047 C31.2368434,77.6585567 31.0337926,77.6238244 30.8329494,77.5786475 L30.736896,77.6907064 Z" id="Shape" fill="#15191F"></path> <path d="M30.2246144,79.1395028 C30.2246144,79.2675732 30.1685836,79.3396128 30.0885396,79.3396128 C30.0520159,79.3507498 30.0130018,79.3507498 29.976478,79.3396128 C29.8260577,79.2247288 29.7350092,79.0485047 29.7283415,78.8593488 C29.72312,78.7965104 29.7466694,78.734693 29.7923768,78.6912563 L29.4401832,77.6346755 C29.2400732,77.6907063 29.1039984,77.9228339 29.1039984,78.2830319 L29.1039984,78.2830272 C29.1066967,78.4566819 29.1336378,78.6291078 29.1840409,78.7953088 L29.1840409,78.7953086 C29.2626302,79.0644558 29.3901638,79.3168097 29.5602477,79.5397178 C29.6562044,79.669514 29.7724195,79.783026 29.9044369,79.8759026 C30.009136,79.9533871 30.1345209,79.9979681 30.2646349,80.003973 C30.5287801,80.003973 30.7128813,79.763841 30.7128813,79.3476122 L30.7128814,79.3476156 C30.703473,79.0291158 30.6213351,78.716989 30.472751,78.435114 L30.392707,78.2910348 L30.0805354,78.8033164 C30.1538646,78.9027567 30.203178,79.0178232 30.2246146,79.1395029 L30.2246144,79.1395028 Z" id="Shape" fill="#F8A01D"></path> <path d="M29.736346,78.8193268 L29.736346,78.8193263 C29.7430135,79.0084823 29.8340621,79.1847064 29.9844824,79.2995903 C30.0210061,79.3107273 30.0600202,79.3107273 30.096544,79.2995903 C30.176588,79.2995903 30.2326188,79.2275507 30.2326188,79.0994803 L30.2326188,79.0994807 C30.2211745,78.9618138 30.1742965,78.8294523 30.096544,78.7152695 L30.0165,78.6432299 C29.9799085,78.6325574 29.94103,78.6325574 29.9044384,78.6432299 C29.8810797,78.635301 29.8557575,78.635301 29.8323988,78.6432299 C29.7723391,78.6816081 29.7360971,78.7480523 29.736346,78.8193267 Z" id="Shape" fill="#464D5A"></path> <path d="M9.4291832,65.8521988 C9.46184572,65.8761617 9.50079184,65.890071 9.5412448,65.8922208 C9.6212888,65.8922208 9.6773196,65.8201812 9.6773196,65.6921108 L9.67731963,65.6921112 C9.66587534,65.5544443 9.61899733,65.4220827 9.54124483,65.3079 L9.46120083,65.2358604 C9.42467708,65.2247234 9.385663,65.2247234 9.34913924,65.2358604 C9.32336771,65.2260064 9.29486676,65.2260064 9.26909523,65.2358604 C9.22725262,65.281308 9.20685893,65.3424894 9.21306442,65.4039528 L9.2130644,65.4039523 C9.21987306,65.5768609 9.29813837,65.7391885 9.4291824,65.8521987 L9.4291832,65.8521988 Z" id="Shape" fill="#464D5A"></path> <path d="M10.9900412,67.0048324 L10.845962,67.1088896 C10.8988236,67.0814443 10.9473682,67.0463844 10.9900412,67.0048324 Z" id="Shape" fill="#959494"></path> <polygon id="Shape" fill="#F8A01D" points="16.7051828 27.0388632 8.0044 32.778018 8.0684352 33.6825152 16.5931212 28.0394132 16.7051828 27.0388632"></polygon> <polygon id="Shape" fill="#FCDFCD" points="8.1164616 31.937556 8.044422 32.8100356 8.4126244 32.4898596 8.5967256 33.3143128 10.885984 31.7854724 10.6378476 31.01705 8.9569236 31.5613492 8.1164616 31.937556"></polygon> <polygon id="Shape" fill="#FBD2B7" points="14.3518892 28.255532 14.1517792 28.7197872 14.2158144 28.6877696 14.447942 28.8078356 14.4799596 29.4401832 16.4330332 28.1514748 16.2649408 27.335026 15.0242588 27.775268 14.3518892 28.255532"></polygon> <path d="M6.963828,8.3405848 L10.0055,9.1410248 L11.20616,7.444092 L11.9185516,7.20396 L11.6944284,6.3154716 L12.3507892,2.7455092 L8.9569236,2.80154 L8.3806068,4.4584508 L7.9483692,4.4584508 C7.9483692,4.4584508 7.6281932,3.3458392 7.1479292,3.561958 C6.6676652,3.7780768 6.8357576,4.4504464 7.20396,4.9547236 L6.243432,6.0753396 L6.963828,8.3405848 Z" id="Shape" fill="#FCDFCD"></path> <polygon id="Shape" fill="#F16622" points="6.6196388 0.9525236 5.8272032 3.6500064 12.1106572 4.082244 12.4548464 2.2652452 11.0780896 0.240132 9.1890512 8.8817842e-16"></polygon> <polygon id="Shape" fill="#B54D1A" points="8.9409148 3.8661252 12.4548464 2.2652452 14.768118 3.3858612 12.7990356 4.362398 8.9409148 3.8661252"></polygon> <polygon id="Shape" fill="#F4854E" points="8.1164616 31.937556 8.9569236 31.5613492 7.0358676 26.5585992 5.0907984 26.3825024"></polygon> <polygon id="Shape" fill="#F4854E" points="4.5384948 9.245082 1.8330076 9.7733724 2.361298 21.3637436 5.0907984 26.3825024 7.0358676 26.5585992 5.3709524 22.2042056"></polygon> <polygon id="Shape" fill="#D6A646" points="13.5594536 53.9736692 13.5594536 53.9576604 10.3737024 52.1246528 10.3496892 60.7774092 13.5594536 62.6264256"></polygon> <polygon id="Shape" fill="#F2BC50" points="13.5594536 53.9576604 13.5594536 53.9576604 25.253882 47.22596 22.052122 45.3769436 17.089394 48.2585276 15.9367604 48.9228928 10.3336804 52.1246528"></polygon> <polygon id="Shape" fill="#CF7D28" points="15.3924612 55.0382544 15.3924612 55.0382544 13.60748 53.9656648 13.60748 53.9656648 13.60748 62.6264256 15.4404876 63.6910108"></polygon> <polygon id="Shape" fill="#F7941D" points="15.3924612 55.0222456 15.3924612 55.0222456 27.0708808 48.2425188 25.253882 47.22596 13.60748 53.9656648"></polygon> <polygon id="Shape" fill="#D6A646" points="15.3924612 55.0382544 15.3924612 63.6910108 18.8263488 65.63608 18.8263488 56.9833236 15.3844568 54.9982324"></polygon> <polygon id="Shape" fill="#F2BC50" points="15.40847 55.03025 18.850362 57.0153412 24.453442 53.8135812 24.453442 53.8135812 25.5900668 53.1572204 25.5900668 53.1572204 30.5447904 50.2756364 27.1109028 48.2985496"></polygon> <polygon id="Shape" fill="#BB9238" points="18.850362 57.0153412 18.8263488 65.6680976 24.4294288 62.4103068 25.5660536 61.753946 30.496764 58.8883708 30.5207772 50.22761 25.5660536 53.109194 25.5580492 53.109194 24.4294288 53.7735592 24.41342 53.7815636 18.850362 57.0153412"></polygon> <polygon id="Shape" fill="#D6A646" points="23.2047556 60.1770792 23.2047556 60.1610704 20.0270088 58.3200584 20.0029956 66.9808192 23.2047556 68.8298356"></polygon> <polygon id="Shape" fill="#F2BC50" points="23.21276 60.1610704 23.21276 60.1610704 34.9071884 53.389348 31.7054284 51.5403316 26.7427004 54.42992 25.61408 55.0862808 20.011 58.2880408"></polygon> <polygon id="Shape" fill="#CF7D28" points="25.0457676 61.2416644 25.0457676 61.2416644 23.21276 60.1690748 23.21276 60.1690748 23.21276 68.83784 25.053772 69.8944208"></polygon> <polygon id="Shape" fill="#F7941D" points="25.0457676 61.2176512 25.0457676 61.2176512 36.740196 54.42992 34.9071884 53.389348 23.21276 60.1690748"></polygon> <polygon id="Shape" fill="#D6A646" points="25.0457676 61.2416644 25.0457676 69.8944208 28.4716508 71.8715076 28.495664 63.23476 25.053772 61.2496688"></polygon> <polygon id="Shape" fill="#F2BC50" points="25.0617764 61.23366 28.495664 63.23476 34.098744 60.033 34.098744 60.033 35.21936 59.312604 35.21936 59.312604 40.1740836 56.43102 36.740196 54.42992"></polygon> <polygon id="Shape" fill="#BB9238" points="28.495664 63.2187512 28.4716508 71.8715076 34.0747308 68.6137168 35.2113556 67.9493516 40.142066 65.0837764 40.1660792 56.43102 35.2113556 59.312604 35.2113556 59.312604 34.0747308 59.9689648 34.058722 59.9849736 28.495664 63.2187512"></polygon> <polygon id="Shape" fill="#D6A646" points="19.3626436 48.6987696 19.3626436 48.6827608 16.1768924 46.8497532 16.1528792 55.5025096 19.3626436 57.3595304 19.3626436 48.6987696"></polygon> <polygon id="Shape" fill="#F2BC50" points="19.3626436 48.6827608 19.3626436 48.6827608 31.057072 41.9110384 27.855312 40.062022 22.892584 42.943606 21.7479548 43.6079712 16.1448748 46.8097312"></polygon> <polygon id="Shape" fill="#CF7D28" points="21.1956512 49.7633548 21.1956512 49.7633548 19.3786524 48.7147784 19.3786524 48.7147784 19.3786524 57.351526 21.1956512 58.43212"></polygon> <polygon id="Shape" fill="#F7941D" points="21.1956512 49.747346 21.1956512 49.747346 32.8740708 42.9676192 31.057072 41.9110384 19.3786524 48.6907652"></polygon> <polygon id="Shape" fill="#D6A646" points="21.1956512 49.7633548 21.1956512 58.43212 24.6215344 60.4092068 24.6215344 51.7564504 21.1796424 49.7713592"></polygon> <polygon id="Shape" fill="#F2BC50" points="21.21166 49.7553504 24.653552 51.7404416 30.256632 48.5386816 30.256632 48.5386816 31.3932568 47.8823208 31.3932568 47.8823208 36.3479804 45.0007368 32.9140928 43.02365"></polygon> <polygon id="Shape" fill="#BB9238" points="24.653552 51.7404416 24.6295388 60.393198 30.2326188 57.1354072 31.3692436 56.4790464 36.299954 53.6054668 36.3239672 44.9527104 31.3692436 47.8342944 31.3692436 47.8342944 30.2326188 48.4906552 30.21661 48.506664 24.653552 51.7404416"></polygon> </g></g></g></g></g></g></svg>
